<?xml version="1.0" encoding="utf-8"?>
<!-- Generator: Adobe Illustrator 20.1.0, SVG Export Plug-In . SVG Version: 6.00 Build 0)  -->
<svg version="1.1" id="Capa_1" xmlns="http://www.w3.org/2000/svg" xmlns:xlink="http://www.w3.org/1999/xlink" x="0px" y="0px"
	 viewBox="0 0 370 189" style="enable-background:new 0 0 370 189;" xml:space="preserve">
<style type="text/css">
	.st0{fill:#8C8C8C;}
</style>
<g>
	<g>
		<g>
			<path class="st0" d="M318.6,166.3H77.3c-0.7,0-1.3-0.6-1.3-1.3v-43.9c0-0.7,0.6-1.3,1.3-1.3s1.3,0.6,1.3,1.3v42.6h238.8V25.2
				H78.5v28c0,0.7-0.6,1.3-1.3,1.3s-1.3-0.6-1.3-1.3V24c0-0.7,0.6-1.3,1.3-1.3h241.4c0.7,0,1.3,0.6,1.3,1.3V165
				C319.9,165.8,319.3,166.3,318.6,166.3z"/>
			<path class="st0" d="M217.7,24.9v139.3h100.9V24.9H217.7z M304,60.6l-39.7,77.7c-0.5,0.9-1,1.6-1.6,2c-0.6,0.4-1.5,0.6-2.6,0.6
				H242c-1.5,0-2.3-0.7-2.3-2.1c0-0.8,0.2-1.5,0.6-2.3l38.6-75h-44.4c-2.2,0-3.7-0.4-4.5-1.4c-0.8-0.9-1.2-2.4-1.2-4.6v-5.5
				c0-2.2,0.4-3.7,1.2-4.6c0.8-0.9,2.3-1.3,4.5-1.3H300c2.9,0,4.9,0.5,6,1.4c1,0.9,1.6,2.5,1.6,4.9C307.6,52.6,306.4,56,304,60.6z"
				/>
		</g>
		<g>
			<path class="st0" d="M29.2,142.5c0-0.7,0.1-1.4,0.4-2.3l36.9-87.8c0.7-1.6,1.4-2.7,2.2-3.3c0.8-0.6,2-0.9,3.5-0.9h10.4
				c1.5,0,2.7,0.3,3.4,0.9c0.8,0.6,1.5,1.7,2.1,3.3l36.9,87.8c0.3,0.9,0.4,1.6,0.4,2.3c0,1.6-0.9,2.4-2.6,2.4h-17.2
				c-1.3,0-2.3-0.2-2.9-0.6c-0.6-0.4-1.2-1.2-1.6-2.3l-6.5-16.8H59.9l-6.4,16.8c-0.5,1.1-1,1.9-1.6,2.3c-0.6,0.4-1.6,0.6-2.9,0.6
				H31.8C30.1,144.9,29.2,144.1,29.2,142.5z M89.1,108.7L77.3,78l-12,30.7H89.1z"/>
			<path class="st0" d="M130.3,134c-9.1-8.7-13.6-21.2-13.6-37.5c0-16.3,4.6-28.8,13.7-37.5c9.1-8.7,21.9-13,38.3-13
				c6.9,0,13.3,0.7,19.1,2.1c5.8,1.4,10.6,3.3,14.4,5.9c1,0.7,1.6,1.4,1.6,2.3c0,0.4-0.2,1-0.7,2l-5.4,9.1c-0.7,1-1.3,1.6-2,1.6
				c-0.5,0-1.2-0.3-2.3-0.9c-6.3-3.4-13.5-5.1-21.6-5.1c-9.9,0-17.6,2.8-23.2,8.4c-5.6,5.6-8.4,14-8.4,25.2
				c0,11.3,2.6,19.7,7.8,25.2c5.2,5.5,12.6,8.3,22.1,8.3c3,0,6-0.2,9-0.7c2.9-0.5,5.3-1.1,7.1-2v-21.9h-15.5c-2.3,0-3.8-0.4-4.7-1.4
				c-0.9-0.9-1.3-2.4-1.3-4.6v-5.1c0-2.1,0.4-3.6,1.3-4.5c0.9-0.9,2.4-1.4,4.7-1.4h30.2c2.7,0,4.5,0.6,5.6,1.8
				c1.1,1.2,1.6,3.1,1.6,5.7v36.1c0,1.6-0.2,2.8-0.6,3.7c-0.4,0.9-1.1,1.7-2.3,2.4c-9.2,5.9-21.3,8.8-36.4,8.8
				C152.2,147,139.4,142.7,130.3,134z"/>
		</g>
	</g>
	<g>
		<path class="st0" d="M340.4,164.4H324c-0.2,0-0.2-0.1-0.2-0.2v-3.5c0-1.2,0.4-2.1,1.2-2.8c0.8-0.7,1.9-1,3.2-1h8
			c1.4,0,2.4,0.3,3.2,1c0.8,0.7,1.2,1.6,1.2,2.8v3.5C340.6,164.4,340.5,164.4,340.4,164.4z M339.5,163.1v-2.4c0-0.8-0.3-1.4-0.9-1.9
			c-0.6-0.5-1.4-0.7-2.4-0.7h-7.9c-1,0-1.9,0.2-2.4,0.7c-0.6,0.5-0.9,1.1-0.9,1.9v2.4c0,0.1,0,0.1,0.1,0.1L339.5,163.1
			C339.4,163.2,339.5,163.1,339.5,163.1z"/>
		<path class="st0" d="M340.4,153.3H324c-0.2,0-0.2-0.1-0.2-0.2v-0.8c0-0.2,0.1-0.2,0.2-0.2h16.3c0.2,0,0.2,0.1,0.2,0.2v0.8
			C340.6,153.2,340.5,153.3,340.4,153.3z"/>
		<path class="st0" d="M339.7,147.6c-0.7,0.7-1.7,1.1-2.8,1.1h-9.4c-1.2,0-2.1-0.4-2.8-1.1s-1.1-1.7-1.1-2.8s0.4-2.1,1.1-2.8
			c0.7-0.7,1.7-1.1,2.8-1.1h1.1c0.2,0,0.2,0.1,0.2,0.2v0.8c0,0.2-0.1,0.2-0.2,0.2h-1.1c-0.8,0-1.5,0.2-2,0.7s-0.7,1.1-0.7,1.9
			c0,0.8,0.2,1.4,0.7,1.9s1.2,0.7,2,0.7h9.5c0.8,0,1.5-0.2,2-0.7s0.7-1.1,0.7-1.9c0-0.8-0.2-1.4-0.7-1.9s-1.2-0.7-2-0.7h-3.4
			c-0.1,0-0.1,0-0.1,0.1v2.3c0,0.2-0.1,0.2-0.2,0.2h-0.6c-0.2,0-0.2-0.1-0.2-0.2v-3.4c0-0.2,0.1-0.2,0.2-0.2h4.3
			c1.2,0,2.1,0.4,2.8,1.1c0.7,0.7,1.1,1.7,1.1,2.8S340.4,146.9,339.7,147.6z"/>
		<path class="st0" d="M340.4,137.5H324c-0.2,0-0.2-0.1-0.2-0.2v-0.8c0-0.2,0.1-0.2,0.2-0.2h16.3c0.2,0,0.2,0.1,0.2,0.2v0.8
			C340.6,137.4,340.5,137.5,340.4,137.5z"/>
		<path class="st0" d="M324,125.4h0.6c0.2,0,0.2,0.1,0.2,0.2v3.2c0,0.1,0,0.1,0.1,0.1h15.3c0.2,0,0.2,0.1,0.2,0.2v0.8
			c0,0.2-0.1,0.2-0.2,0.2H325c-0.1,0-0.1,0-0.1,0.1v3c0,0.2-0.1,0.2-0.2,0.2H324c-0.2,0-0.2-0.1-0.2-0.2v-7.7
			C323.8,125.4,323.9,125.4,324,125.4z"/>
		<path class="st0" d="M340.4,117.4l-3.1,0.6c0,0-0.1,0-0.1,0c0,0,0,0.1,0,0.1v4.7c0,0,0,0.1,0,0.1c0,0,0,0,0.1,0l3.1,0.6
			c0.1,0,0.2,0.1,0.2,0.3v0.8c0,0.1,0,0.1-0.1,0.2s-0.1,0.1-0.2,0l-16.3-3.6c-0.1,0-0.2-0.1-0.2-0.3v-1c0-0.2,0.1-0.2,0.2-0.3
			l16.3-3.7h0c0.1,0,0.2,0.1,0.2,0.2v0.8C340.6,117.3,340.5,117.4,340.4,117.4z M336.1,122.6v-4.2c0,0,0-0.1-0.1-0.1l-10.2,2.1
			c0,0-0.1,0-0.1,0c0,0,0,0,0.1,0L336.1,122.6C336.1,122.7,336.1,122.7,336.1,122.6z"/>
		<path class="st0" d="M340.4,113.9H324c-0.2,0-0.2-0.1-0.2-0.2v-0.8c0-0.2,0.1-0.2,0.2-0.2h15.3c0.1,0,0.1,0,0.1-0.1v-5.6
			c0-0.2,0.1-0.2,0.2-0.2h0.6c0.2,0,0.2,0.1,0.2,0.2v6.7C340.6,113.8,340.5,113.9,340.4,113.9z"/>
		<path class="st0" d="M339.4,93.1c0.8,0.8,1.2,1.8,1.2,3.1v3.4c0,0.2-0.1,0.2-0.2,0.2H324c-0.2,0-0.2-0.1-0.2-0.2v-3.3
			c0-1.3,0.4-2.4,1.1-3.1s1.8-1.1,3.2-1.1c1.8,0,3.1,0.7,3.7,2.1c0,0,0,0.1,0,0.1c0,0,0,0,0,0c0.4-0.7,0.9-1.2,1.6-1.6
			c0.7-0.4,1.5-0.6,2.5-0.6C337.5,91.9,338.6,92.3,339.4,93.1z M325,98.5h6.3c0.1,0,0.1,0,0.1-0.1v-2.2c0-0.9-0.3-1.7-0.8-2.2
			c-0.6-0.5-1.3-0.8-2.4-0.8c-1,0-1.8,0.3-2.4,0.8c-0.6,0.5-0.9,1.3-0.9,2.2L325,98.5C324.9,98.5,325,98.5,325,98.5z M338.5,94
			c-0.6-0.5-1.5-0.8-2.6-0.8c-1.1,0-2,0.3-2.6,0.8c-0.6,0.5-0.9,1.3-0.9,2.2v2.2c0,0.1,0,0.1,0.1,0.1h6.8c0.1,0,0.1,0,0.1-0.1v-2.2
			C339.5,95.3,339.2,94.5,338.5,94z"/>
		<path class="st0" d="M339.6,88.2c-0.8,0.7-1.9,1.1-3.3,1.1H324c-0.2,0-0.2-0.1-0.2-0.2v-0.8c0-0.2,0.1-0.2,0.2-0.2h12.4
			c1,0,1.8-0.2,2.4-0.7c0.6-0.5,0.9-1.1,0.9-1.9c0-0.8-0.3-1.5-0.9-2s-1.4-0.8-2.4-0.8H324c-0.2,0-0.2-0.1-0.2-0.2v-0.8
			c0-0.2,0.1-0.2,0.2-0.2h12.2c1.4,0,2.5,0.4,3.3,1.1c0.8,0.7,1.2,1.7,1.2,2.9C340.8,86.6,340.4,87.5,339.6,88.2z"/>
		<path class="st0" d="M339.6,77.5c-0.8,0.7-1.8,1.1-3,1.1h-0.5c-0.2,0-0.2-0.1-0.2-0.2v-0.8c0-0.2,0.1-0.2,0.2-0.2h0.5
			c0.9,0,1.7-0.2,2.3-0.7c0.6-0.5,0.9-1.1,0.9-1.8c0-0.8-0.3-1.4-0.8-1.9c-0.6-0.5-1.3-0.7-2.2-0.7c-0.6,0-1.1,0.1-1.5,0.3
			c-0.4,0.2-0.8,0.5-1.1,0.9c-0.3,0.4-0.8,0.9-1.4,1.8c-0.6,0.8-1.1,1.5-1.5,1.9c-0.4,0.4-0.9,0.8-1.5,1.1c-0.6,0.3-1.2,0.4-2,0.4
			c-1.2,0-2.2-0.3-2.9-1s-1.1-1.6-1.1-2.7c0-1.2,0.4-2.1,1.2-2.8c0.8-0.7,1.8-1.1,3.1-1.1h0.6c0.2,0,0.2,0.1,0.2,0.2v0.8
			c0,0.2-0.1,0.2-0.2,0.2h-0.6c-0.9,0-1.7,0.2-2.3,0.7c-0.6,0.5-0.9,1.1-0.9,1.9c0,0.7,0.3,1.3,0.8,1.8c0.5,0.5,1.2,0.7,2.1,0.7
			c0.5,0,1-0.1,1.4-0.3c0.4-0.2,0.8-0.5,1.1-0.9s0.8-0.9,1.4-1.7c0.7-0.9,1.3-1.6,1.7-2.1c0.4-0.5,0.9-0.8,1.4-1.1
			c0.5-0.2,1.1-0.4,1.8-0.4c1.3,0,2.4,0.4,3.1,1.1s1.2,1.6,1.2,2.8C340.8,75.9,340.4,76.8,339.6,77.5z"/>
		<path class="st0" d="M340.4,68H324c-0.2,0-0.2-0.1-0.2-0.2v-0.8c0-0.2,0.1-0.2,0.2-0.2h16.3c0.2,0,0.2,0.1,0.2,0.2v0.8
			C340.6,67.9,340.5,68,340.4,68z"/>
		<path class="st0" d="M323.8,56v-0.8c0-0.2,0.1-0.2,0.2-0.2h16.3c0.2,0,0.2,0.1,0.2,0.2v0.9c0,0.1-0.1,0.2-0.2,0.3L327,61.5
			c0,0-0.1,0-0.1,0.1c0,0,0,0,0.1,0l13.4,0c0.2,0,0.2,0.1,0.2,0.2v0.8c0,0.2-0.1,0.2-0.2,0.2H324c-0.2,0-0.2-0.1-0.2-0.2v-0.9
			c0-0.1,0.1-0.2,0.2-0.3l13.4-5.1c0,0,0.1,0,0.1-0.1s0,0-0.1,0H324C323.9,56.2,323.8,56.1,323.8,56z"/>
		<path class="st0" d="M324.9,44.1v5.7c0,0.1,0,0.1,0.1,0.1h6.5c0.1,0,0.1,0,0.1-0.1v-3.6c0-0.2,0.1-0.2,0.2-0.2h0.6
			c0.2,0,0.2,0.1,0.2,0.2v3.6c0,0.1,0,0.1,0.1,0.1h6.5c0.1,0,0.1,0,0.1-0.1v-5.7c0-0.2,0.1-0.2,0.2-0.2h0.6c0.2,0,0.2,0.1,0.2,0.2
			v6.8c0,0.2-0.1,0.2-0.2,0.2H324c-0.2,0-0.2-0.1-0.2-0.2v-6.8c0-0.2,0.1-0.2,0.2-0.2h0.6C324.9,43.9,324.9,44,324.9,44.1z"/>
		<path class="st0" d="M339.6,40.7c-0.8,0.7-1.8,1.1-3,1.1h-0.5c-0.2,0-0.2-0.1-0.2-0.2v-0.8c0-0.2,0.1-0.2,0.2-0.2h0.5
			c0.9,0,1.7-0.2,2.3-0.7c0.6-0.5,0.9-1.1,0.9-1.8s-0.3-1.4-0.8-1.9c-0.6-0.5-1.3-0.7-2.2-0.7c-0.6,0-1.1,0.1-1.5,0.3
			c-0.4,0.2-0.8,0.5-1.1,0.9c-0.3,0.4-0.8,0.9-1.4,1.8c-0.6,0.8-1.1,1.5-1.5,1.9c-0.4,0.4-0.9,0.8-1.5,1.1c-0.6,0.3-1.2,0.4-2,0.4
			c-1.2,0-2.2-0.3-2.9-1c-0.7-0.7-1.1-1.6-1.1-2.7c0-1.2,0.4-2.1,1.2-2.8c0.8-0.7,1.8-1.1,3.1-1.1h0.6c0.2,0,0.2,0.1,0.2,0.2v0.8
			c0,0.2-0.1,0.2-0.2,0.2h-0.6c-0.9,0-1.7,0.2-2.3,0.7s-0.9,1.1-0.9,1.9c0,0.7,0.3,1.3,0.8,1.8s1.2,0.7,2.1,0.7c0.5,0,1-0.1,1.4-0.3
			s0.8-0.5,1.1-0.9s0.8-0.9,1.4-1.7c0.7-0.9,1.3-1.6,1.7-2.1c0.4-0.5,0.9-0.8,1.4-1.1c0.5-0.2,1.1-0.4,1.8-0.4
			c1.3,0,2.4,0.4,3.1,1.1s1.2,1.6,1.2,2.8C340.8,39.1,340.4,40,339.6,40.7z"/>
		<path class="st0" d="M339.6,30.9c-0.8,0.7-1.8,1.1-3,1.1h-0.5c-0.2,0-0.2-0.1-0.2-0.2v-0.8c0-0.2,0.1-0.2,0.2-0.2h0.5
			c0.9,0,1.7-0.2,2.3-0.7c0.6-0.5,0.9-1.1,0.9-1.8s-0.3-1.4-0.8-1.9c-0.6-0.5-1.3-0.7-2.2-0.7c-0.6,0-1.1,0.1-1.5,0.3
			c-0.4,0.2-0.8,0.5-1.1,0.9c-0.3,0.4-0.8,0.9-1.4,1.8c-0.6,0.8-1.1,1.5-1.5,1.9c-0.4,0.4-0.9,0.8-1.5,1.1c-0.6,0.3-1.2,0.4-2,0.4
			c-1.2,0-2.2-0.3-2.9-1c-0.7-0.7-1.1-1.6-1.1-2.7c0-1.2,0.4-2.1,1.2-2.8c0.8-0.7,1.8-1.1,3.1-1.1h0.6c0.2,0,0.2,0.1,0.2,0.2v0.8
			c0,0.2-0.1,0.2-0.2,0.2h-0.6c-0.9,0-1.7,0.2-2.3,0.7s-0.9,1.1-0.9,1.9c0,0.7,0.3,1.3,0.8,1.8s1.2,0.7,2.1,0.7c0.5,0,1-0.1,1.4-0.3
			s0.8-0.5,1.1-0.9s0.8-0.9,1.4-1.7c0.7-0.9,1.3-1.6,1.7-2.1c0.4-0.5,0.9-0.8,1.4-1.1c0.5-0.2,1.1-0.4,1.8-0.4
			c1.3,0,2.4,0.4,3.1,1.1s1.2,1.6,1.2,2.8C340.8,29.3,340.4,30.2,339.6,30.9z"/>
	</g>
</g>
</svg>
